<svg width="21" height="26" viewBox="0 0 20 16" fill="none" xmlns="http://www.w3.org/2000/svg">
<path d="M0.909091 14V2.36364H4.84091C5.75 2.36364 6.49621 2.51894 7.07955 2.82955C7.66288 3.13636 8.0947 3.55871 8.375 4.09659C8.6553 4.63447 8.79545 5.24621 8.79545 5.93182C8.79545 6.61742 8.6553 7.22538 8.375 7.75568C8.0947 8.28598 7.66477 8.70265 7.08523 9.00568C6.50568 9.30492 5.76515 9.45455 4.86364 9.45455H1.68182V8.18182H4.81818C5.43939 8.18182 5.93939 8.09091 6.31818 7.90909C6.70076 7.72727 6.97727 7.4697 7.14773 7.13636C7.32197 6.79924 7.40909 6.39773 7.40909 5.93182C7.40909 5.46591 7.32197 5.05871 7.14773 4.71023C6.97349 4.36174 6.69508 4.0928 6.3125 3.90341C5.92992 3.71023 5.42424 3.61364 4.79545 3.61364H2.31818V14H0.909091ZM6.38636 8.77273L9.25 14H7.61364L4.79545 8.77273H6.38636ZM14.3707 15.4545V0.90909H15.3026V15.4545H14.3707ZM17.5071 5.27273C17.4389 4.69697 17.1624 4.25 16.6776 3.93182C16.1927 3.61364 15.598 3.45455 14.8935 3.45455C14.3783 3.45455 13.9276 3.53788 13.5412 3.70455C13.1586 3.87121 12.8594 4.10038 12.6435 4.39205C12.4313 4.68371 12.3253 5.01515 12.3253 5.38636C12.3253 5.69697 12.3991 5.96401 12.5469 6.1875C12.6984 6.4072 12.8916 6.59091 13.1264 6.73864C13.3613 6.88258 13.6075 7.00189 13.8651 7.09659C14.1226 7.1875 14.3594 7.26136 14.5753 7.31818L15.7571 7.63636C16.0601 7.71591 16.3973 7.82576 16.7685 7.96591C17.1435 8.10606 17.5014 8.29735 17.8423 8.53977C18.187 8.77841 18.4711 9.08523 18.6946 9.46023C18.9181 9.83523 19.0298 10.2955 19.0298 10.8409C19.0298 11.4697 18.8651 12.0379 18.5355 12.5455C18.2098 13.053 17.7325 13.4564 17.1037 13.7557C16.4787 14.0549 15.7192 14.2045 14.8253 14.2045C13.992 14.2045 13.2704 14.0701 12.6605 13.8011C12.0545 13.5322 11.5772 13.1572 11.2287 12.6761C10.884 12.1951 10.6889 11.6364 10.6435 11H12.098C12.1359 11.4394 12.2836 11.803 12.5412 12.0909C12.8026 12.375 13.1321 12.5871 13.5298 12.7273C13.9313 12.8636 14.3632 12.9318 14.8253 12.9318C15.3632 12.9318 15.8461 12.8447 16.2741 12.6705C16.7022 12.4924 17.0412 12.2462 17.2912 11.9318C17.5412 11.6136 17.6662 11.2424 17.6662 10.8182C17.6662 10.4318 17.5582 10.1174 17.3423 9.875C17.1264 9.63258 16.8423 9.43561 16.4901 9.28409C16.1378 9.13258 15.7571 9 15.348 8.88636L13.9162 8.47727C13.0071 8.21591 12.2874 7.8428 11.7571 7.35795C11.2268 6.87311 10.9616 6.23864 10.9616 5.45455C10.9616 4.80303 11.1378 4.23485 11.4901 3.75C11.8461 3.26136 12.3234 2.88258 12.9219 2.61364C13.5241 2.34091 14.1965 2.20455 14.9389 2.20455C15.6889 2.20455 16.3556 2.33901 16.9389 2.60795C17.5223 2.87311 17.9844 3.23674 18.3253 3.69886C18.67 4.16098 18.8518 4.68561 18.8707 5.27273H17.5071Z" fill="#868E96"/>
</svg>
